<svg xmlns="http://www.w3.org/2000/svg" width="20" height="12" viewBox="0 0 20 12" fill="none">
<path d="M20 1.96934C19.8871 2.32903 19.6311 2.58347 19.3731 2.84148C16.5406 5.66941 13.7096 8.49938 10.8822 11.3329C10.5353 11.6809 10.1408 11.8433 9.66618 11.6844C9.48889 11.6252 9.31416 11.5077 9.18081 11.3743C6.23997 8.44318 3.30372 5.50694 0.370037 2.56814C-0.122999 2.07459 -0.120955 1.43543 0.361862 0.937289C0.588198 0.7038 0.813513 0.467245 1.0608 0.256747C1.47771 -0.0978296 2.05504 -0.0799475 2.47195 0.278206C2.53582 0.333385 2.5961 0.393162 2.65588 0.45294C5.04442 2.84148 7.43347 5.22951 9.82099 7.61907C9.87566 7.67425 9.92062 7.73914 10.0575 7.84234C10.0954 7.77388 10.1194 7.69162 10.172 7.63848C12.581 5.22491 14.993 2.81389 17.405 0.40287C17.8552 -0.0467372 18.4754 -0.136659 18.8969 0.233757C19.3261 0.610814 19.7972 0.965902 20 1.53966L20 1.96934Z" fill="#939393"/>
</svg>