<svg xmlns="http://www.w3.org/2000/svg" width="44" height="45" viewBox="0 0 44 45" fill="none">
<path d="M43.0306 16.9399C43.0825 16.3687 42.9675 15.8012 42.8748 15.5119C42.4556 14.2174 41.3355 13.2752 39.989 13.0786L29.4438 11.5467L24.7294 1.99184C24.1285 0.771513 22.8859 0 21.5246 0C20.1634 0 18.9208 0.771513 18.3199 1.99184L13.6055 11.5467L3.06024 13.0786C1.7138 13.2752 0.597331 14.2174 0.174482 15.5119C0.0817523 15.8012 0.0298236 16.0979 0.0112776 16.3909H0.00756836V16.428C0.00756836 16.4466 0.00756836 20.523 0.0149868 20.5935V20.6454C0.0891707 21.48 0.456381 22.2774 1.07582 22.882L8.16039 29.7886L6.90297 37.1142C6.85475 37.3999 6.84733 37.6855 6.86588 37.9674H6.86217L6.85475 41.2945C6.81024 42.474 7.35178 43.6128 8.32359 44.3175C9.42523 45.1187 10.8829 45.2226 12.0847 44.5883L21.5172 39.6291L30.9497 44.5883C32.1552 45.2226 33.6129 45.115 34.7108 44.3175C35.5788 43.6869 36.0981 42.7114 36.1686 41.6728H36.1723V37.9636H36.1686C36.1871 37.6855 36.1834 37.3999 36.1315 37.1142L34.874 29.7886L41.9586 22.882C42.7264 22.1328 43.101 21.0942 43.0194 20.0519V16.9362L43.0306 16.9399Z" fill="#D15404"/>
<path d="M43.0306 16.9399C43.0825 16.3687 42.9675 15.8012 42.8748 15.5119C42.4556 14.2174 41.3355 13.2752 39.989 13.0786L29.4438 11.5467L24.7294 1.99184C24.1285 0.771513 22.8859 0 21.5246 0C20.1634 0 18.9208 0.771513 18.3199 1.99184L13.6055 11.5467L3.06024 13.0786C1.7138 13.2752 0.597331 14.2174 0.174482 15.5119C0.0817523 15.8012 0.0298236 16.0979 0.0112776 16.3909H0.00756836V16.428C0.00756836 16.4466 0.00756836 20.523 0.0149868 20.5935V20.6454C0.0891707 21.48 0.456381 22.2774 1.07582 22.882L8.16039 29.7886L6.90297 37.1142C6.85475 37.3999 6.84733 37.6855 6.86588 37.9674H6.86217L6.85475 41.2945C6.81024 42.474 7.35178 43.6128 8.32359 44.3175C9.42523 45.1187 10.8829 45.2226 12.0847 44.5883L21.5172 39.6291L30.9497 44.5883C32.1552 45.2226 33.6129 45.115 34.7108 44.3175C35.5788 43.6869 36.0981 42.7114 36.1686 41.6728H36.1723V37.9636H36.1686C36.1871 37.6855 36.1834 37.3999 36.1315 37.1142L34.874 29.7886L41.9586 22.882C42.7264 22.1328 43.101 21.0942 43.0194 20.0519V16.9362L43.0306 16.9399Z" fill="url(#paint0_linear_3371_71)"/>
<path style="mix-blend-mode:multiply" d="M21.5246 39.6328L30.9571 44.592C31.3317 44.7885 31.7323 44.9072 32.1404 44.9629L34.0654 39.7106L21.5246 34.6661V39.6328Z" fill="url(#paint1_linear_3371_71)"/>
<path d="M18.32 1.99184C18.9209 0.771513 20.1635 0 21.5247 0C22.886 0 24.1286 0.771513 24.7295 1.99184L29.4439 11.5467L39.9891 13.0786C41.3356 13.2752 42.452 14.2174 42.8749 15.5119C43.294 16.8064 42.9454 18.227 41.9698 19.1766L34.34 26.6135L36.1427 37.1142C36.3727 38.4533 35.82 39.8108 34.7221 40.6083C33.6241 41.4058 32.1627 41.5134 30.9609 40.8791L21.5284 35.9199L12.0959 40.8791C10.8905 41.5134 9.43274 41.4058 8.33482 40.6083C7.2369 39.8108 6.68423 38.4533 6.9142 37.1142L8.71687 26.6135L1.07963 19.1728C0.104109 18.2233 -0.244556 16.8027 0.174584 15.5082C0.593723 14.2136 1.7139 13.2715 3.06034 13.0749L13.6056 11.543L18.32 1.98813V1.99184Z" fill="#FBC817"/>
<path d="M32.6189 40.178C32.222 40.178 31.8251 40.0816 31.4764 39.8961L21.5283 34.6661L11.5803 39.8961C11.2279 40.0816 10.831 40.178 10.4341 40.178C9.91113 40.178 9.41039 40.0148 8.98754 39.7069C8.22345 39.1506 7.84882 38.2307 8.00831 37.2997L9.90742 26.2203L1.85475 18.3753C1.17968 17.7151 0.942289 16.7507 1.23161 15.8531C1.52463 14.9554 2.28502 14.3138 3.21603 14.1802L14.3399 12.563L19.314 2.48141C19.7331 1.63572 20.5751 1.10901 21.5209 1.10901C22.4668 1.10901 23.3088 1.63572 23.7279 2.48141L28.7019 12.563L39.8258 14.1802C40.7605 14.3175 41.5209 14.9592 41.8102 15.8531C42.1033 16.7507 41.8622 17.7151 41.1871 18.3753L33.1381 26.2203L35.0372 37.2997C35.1967 38.2307 34.8221 39.1506 34.058 39.7069C33.6352 40.0148 33.1344 40.178 32.6114 40.178H32.6189Z" fill="url(#paint2_radial_3371_71)"/>
<path d="M32.6188 38.3235C32.5224 38.3235 32.4222 38.2975 32.3369 38.253L21.5246 32.5668L10.7123 38.253C10.627 38.2975 10.5268 38.3235 10.4304 38.3235C10.3006 38.3235 10.1782 38.2827 10.0743 38.2085C9.88514 38.0713 9.79241 37.8487 9.83321 37.615L11.8992 25.575L3.15294 17.0475C2.98232 16.8843 2.92668 16.6506 3.00087 16.4281C3.07505 16.2018 3.25309 16.0498 3.49048 16.0164L15.5788 14.2582L20.9868 3.30494C21.0906 3.09352 21.2946 2.96741 21.5283 2.96741C21.762 2.96741 21.966 3.09352 22.0699 3.30494L27.4779 14.2582L39.5662 16.0164C39.8035 16.0498 39.9816 16.2018 40.0558 16.4281C40.1299 16.6506 40.0706 16.8843 39.9037 17.0475L31.1574 25.575L33.2234 37.615C33.2642 37.8487 33.1715 38.0676 32.9823 38.2085C32.8785 38.2864 32.7561 38.3235 32.6262 38.3235H32.6188Z" fill="#EF8C2E"/>
<path d="M32.6188 37.5815C32.5224 37.5815 32.4222 37.5556 32.3369 37.5111L21.5246 31.8249L10.7123 37.5111C10.627 37.5556 10.5268 37.5815 10.4304 37.5815C10.3006 37.5815 10.1782 37.5407 10.0743 37.4666C9.88514 37.3293 9.79241 37.1068 9.83321 36.8731L11.8992 24.833L3.15294 16.3056C2.98232 16.1424 2.92668 15.9087 3.00087 15.6861C3.07505 15.4599 3.25309 15.3078 3.49048 15.2744L15.5788 13.5163L20.9868 2.563C21.0906 2.35158 21.2946 2.22546 21.5283 2.22546C21.762 2.22546 21.966 2.35158 22.0699 2.563L27.4779 13.5163L39.5662 15.2744C39.8035 15.3078 39.9816 15.4599 40.0558 15.6861C40.1299 15.9087 40.0706 16.1424 39.9037 16.3056L31.1574 24.833L33.2234 36.8731C33.2642 37.1068 33.1715 37.3256 32.9823 37.4666C32.8785 37.5445 32.7561 37.5815 32.6262 37.5815H32.6188Z" fill="url(#paint3_linear_3371_71)"/>
<path d="M6.36142 15.5675C5.21898 15.5675 4.0951 15.6306 2.98605 15.7381C2.93783 15.9458 2.99346 16.1536 3.14925 16.3056L11.8955 24.8331L9.82952 36.8731C9.78872 37.1068 9.88145 37.3257 10.0706 37.4666C10.1782 37.5445 10.2969 37.5816 10.4267 37.5816C10.5231 37.5816 10.6233 37.5556 10.7086 37.5111L21.5209 31.8249L32.3332 37.5111C32.4185 37.5556 32.5187 37.5816 32.6151 37.5816C32.7449 37.5816 32.8674 37.5408 32.9712 37.4666C33.1604 37.3294 33.2531 37.1068 33.2123 36.8731L31.8881 29.1506C27.7338 21.1795 17.8711 15.5675 6.35771 15.5675H6.36142Z" fill="url(#paint4_linear_3371_71)"/>
<defs>
<linearGradient id="paint0_linear_3371_71" x1="2.46306" y1="29.0579" x2="44.5068" y2="17.8524" gradientUnits="userSpaceOnUse">
<stop stop-color="#FAEC89"/>
<stop offset="0.16" stop-color="#D15404" stop-opacity="0"/>
<stop offset="0.19" stop-color="#FAEC89"/>
<stop offset="0.53" stop-color="#D15404" stop-opacity="0"/>
<stop offset="0.75" stop-color="#D15404" stop-opacity="0"/>
<stop offset="0.8" stop-color="#FAEC89"/>
<stop offset="1" stop-color="#D15404" stop-opacity="0"/>
</linearGradient>
<linearGradient id="paint1_linear_3371_71" x1="31.7175" y1="41.8286" x2="22.9415" y2="38.316" gradientUnits="userSpaceOnUse">
<stop stop-color="#D15404" stop-opacity="0"/>
<stop offset="1" stop-color="#EF8C2E"/>
</linearGradient>
<radialGradient id="paint2_radial_3371_71" cx="0" cy="0" r="1" gradientUnits="userSpaceOnUse" gradientTransform="translate(21.7732 23.6127) scale(21.5134)">
<stop stop-color="#FBC817" stop-opacity="0"/>
<stop offset="1" stop-color="#EF8C2E"/>
</radialGradient>
<linearGradient id="paint3_linear_3371_71" x1="24.6737" y1="5.83451" x2="18.7279" y2="24.7959" gradientUnits="userSpaceOnUse">
<stop stop-color="#FAEC89"/>
<stop offset="1" stop-color="#FBC817"/>
</linearGradient>
<linearGradient id="paint4_linear_3371_71" x1="21.2242" y1="16.4614" x2="14.6366" y2="37.4666" gradientUnits="userSpaceOnUse">
<stop stop-color="#FAEC89"/>
<stop offset="1" stop-color="#FBC817" stop-opacity="0"/>
</linearGradient>
</defs>
</svg>