<svg xmlns="http://www.w3.org/2000/svg" width="44" height="45" viewBox="0 0 44 45" fill="none">
<path d="M43.0801 16.9399C43.1321 16.3687 43.0171 15.8012 42.9243 15.5119C42.5052 14.2174 41.385 13.2752 40.0386 13.0786L29.4933 11.5467L24.7789 1.99184C24.1781 0.771513 22.9355 0 21.5742 0C20.2129 0 18.9703 0.771513 18.3694 1.99184L13.6551 11.5467L3.1098 13.0786C1.76336 13.2752 0.646892 14.2174 0.224043 15.5119C0.131313 15.8012 0.0793841 16.0979 0.0608381 16.3909H0.0571289V16.428C0.0571289 16.4466 0.0571289 20.523 0.0645473 20.5935V20.6454C0.138731 21.48 0.505942 22.2774 1.12538 22.882L8.20995 29.7886L6.95253 37.1142C6.90431 37.3999 6.89689 37.6855 6.91544 37.9674H6.91173L6.90431 41.2945C6.8598 42.474 7.40134 43.6128 8.37315 44.3175C9.47479 45.1187 10.9325 45.2226 12.1343 44.5883L21.5668 39.6291L30.9993 44.5883C32.2048 45.2226 33.6625 45.115 34.7604 44.3175C35.6283 43.6869 36.1476 42.7114 36.2181 41.6728H36.2218V37.9636H36.2181C36.2367 37.6855 36.233 37.3999 36.181 37.1142L34.9236 29.7886L42.0082 22.882C42.776 22.1328 43.1506 21.0942 43.069 20.0519V16.9362L43.0801 16.9399Z" fill="#CECECE"/>
</svg>