<svg xmlns="http://www.w3.org/2000/svg" width="101" height="45" viewBox="0 0 101 45" fill="none">
<g clip-path="url(#clip0_3380_3895)">
<path d="M1.03656 15.1764V0H6.97666C7.85798 0 8.6572 0.205963 9.3721 0.61789C10.0878 1.02982 10.6549 1.59025 11.0743 2.29843C11.4937 3.00662 11.7026 3.80883 11.7026 4.70507C11.7026 5.54385 11.5004 6.30203 11.0959 6.98186C10.6915 7.66169 10.1422 8.19973 9.44822 8.59673C8.75421 8.99448 7.97364 9.19298 7.10651 9.19298H2.7268V15.1764H1.03656ZM2.72755 7.54527H7.25874C7.79305 7.54527 8.26319 7.42289 8.66765 7.17663C9.07211 6.93111 9.39001 6.5953 9.62135 6.16845C9.85268 5.74235 9.96835 5.2543 9.96835 4.70507C9.96835 4.11255 9.83104 3.58496 9.55643 3.12228C9.28181 2.65961 8.90197 2.29843 8.4184 2.03799C7.93409 1.77755 7.38113 1.64771 6.76025 1.64771H2.72755V7.54453V7.54527ZM10.2937 15.1764L6.47817 8.49897L8.10424 7.93556L12.3101 15.1771H10.2937V15.1764Z" fill="black"/>
<path d="M18.2509 15.3928C17.2681 15.3928 16.3794 15.1361 15.5846 14.6234C14.7899 14.1107 14.1608 13.4093 13.6981 12.5205C13.2354 11.6317 13.0041 10.6235 13.0041 9.49597C13.0041 8.36839 13.2429 7.34231 13.7197 6.46099C14.1966 5.57968 14.8361 4.88567 15.6383 4.37972C16.4405 3.87377 17.3405 3.62079 18.3375 3.62079C18.93 3.62079 19.4792 3.70735 19.9852 3.88123C20.4912 4.05436 20.9426 4.29689 21.3404 4.60732C21.7381 4.91851 22.0702 5.27969 22.3374 5.69162C22.6045 6.10354 22.7888 6.5483 22.8903 7.02515L22.4135 6.78636L22.4784 3.85959H24.1045V15.1764H22.4568V12.4011L22.8903 12.119C22.7888 12.5526 22.5941 12.9682 22.3053 13.366C22.0157 13.7637 21.6657 14.1137 21.2538 14.4174C20.8419 14.7212 20.3792 14.9592 19.8665 15.1331C19.3531 15.3062 18.8151 15.3935 18.2517 15.3935L18.2509 15.3928ZM18.6196 13.8316C19.371 13.8316 20.0434 13.6473 20.6359 13.2787C21.2284 12.91 21.6948 12.3974 22.0344 11.7392C22.3739 11.0817 22.5441 10.334 22.5441 9.49522C22.5441 8.65644 22.3739 7.91244 22.0344 7.26246C21.6948 6.61173 21.2284 6.09906 20.6359 5.72296C20.0434 5.3476 19.371 5.15954 18.6196 5.15954C17.8681 5.15954 17.1778 5.3476 16.5928 5.72296C16.0077 6.09906 15.545 6.61173 15.2055 7.26246C14.866 7.91318 14.6958 8.65719 14.6958 9.49522C14.6958 10.3333 14.8615 11.0601 15.1943 11.7175C15.5264 12.3757 15.9891 12.8921 16.5816 13.2675C17.1741 13.6436 17.8532 13.8309 18.6196 13.8309V13.8316Z" fill="black"/>
<path d="M25.8387 5.41996V3.85881H32.8848V5.41996H25.8387ZM28.3969 15.1763V0.888763H30.0229V15.1763H28.3969Z" fill="black"/>
<path d="M39.3241 15.3928C38.1965 15.3928 37.1958 15.1473 36.3212 14.6555C35.4466 14.1645 34.7638 13.4779 34.2727 12.5959C33.781 11.7145 33.5355 10.7026 33.5355 9.56088C33.5355 8.67956 33.6728 7.88034 33.9474 7.16543C34.222 6.44979 34.6086 5.82518 35.1071 5.29012C35.6055 4.75581 36.2018 4.34016 36.8958 4.04315C37.5898 3.74689 38.3413 3.59839 39.1502 3.59839C39.9158 3.59839 40.6136 3.7357 41.2427 4.01032C41.871 4.28493 42.4135 4.66477 42.8687 5.14834C43.3239 5.63265 43.6672 6.20726 43.8986 6.87216C44.1299 7.53706 44.2306 8.26689 44.2023 9.06164L44.1806 9.82057H34.7496L34.5108 8.45494H42.9441L42.5538 8.82359V8.30346C42.5247 7.78332 42.3732 7.2811 42.0986 6.79679C41.824 6.31248 41.4374 5.91846 40.9389 5.61549C40.4405 5.31176 39.8442 5.16028 39.1502 5.16028C38.3405 5.16028 37.6398 5.32296 37.0473 5.64832C36.4548 5.97368 35.9988 6.45426 35.6817 7.09006C35.3638 7.72661 35.2048 8.5139 35.2048 9.45342C35.2048 10.3929 35.3779 11.1265 35.7249 11.7839C36.0719 12.4421 36.5667 12.9511 37.21 13.3122C37.8532 13.6734 38.6301 13.854 39.5405 13.854C40.0748 13.854 40.6061 13.7637 41.1337 13.5831C41.6613 13.4025 42.2426 13.0451 42.8792 12.51L43.7247 13.6809C43.3918 14.0137 42.9948 14.3062 42.5322 14.5592C42.0695 14.8122 41.5636 15.0144 41.0143 15.1659C40.4651 15.3174 39.9009 15.3935 39.3233 15.3935L39.3241 15.3928Z" fill="black"/>
<path d="M46.738 15.1764V0H48.3857L54.2176 9.47431L53.4371 9.45267L59.3346 0H60.8741V15.1764H59.1831V8.23853C59.1831 6.93783 59.2048 5.76697 59.2481 4.72596C59.2914 3.68495 59.3705 2.65215 59.4869 1.62607L59.7906 2.23276L54.349 10.775H53.1781L47.888 2.34171L48.1268 1.62607C48.2425 2.59469 48.3223 3.58794 48.3656 4.60731C48.4089 5.62593 48.4305 6.83709 48.4305 8.23853V15.1764H46.7395H46.738Z" fill="black"/>
<path d="M66.1635 20.1627L68.353 14.8293L68.5044 16.3688L62.824 3.85956H64.6673L68.5477 12.5317C68.6634 12.763 68.7791 13.0339 68.8947 13.3443C69.0104 13.6555 69.1186 13.9622 69.2201 14.2659L68.6134 14.201C68.7141 13.9555 68.8119 13.7025 68.9059 13.4421C68.9999 13.1816 69.0902 12.9294 69.1768 12.6831L72.5804 3.85956H74.4445L69.8701 15.1763L67.9186 20.1627H66.1627H66.1635Z" fill="black"/>
<path d="M9.38775 39.1494C8.02212 39.1494 6.76843 38.9144 5.62444 38.445C4.48119 37.9756 3.48794 37.3107 2.64618 36.4503C1.80367 35.5906 1.1522 34.5712 0.691768 33.3922C0.230589 32.2131 0 30.9236 0 29.5229C0 28.1222 0.239544 26.8946 0.717887 25.7335C1.19698 24.5723 1.87009 23.5619 2.73872 22.7015C3.60734 21.8418 4.62671 21.1724 5.79682 20.6933C6.96693 20.2142 8.23406 19.9754 9.59968 19.9754C10.4862 19.9754 11.3593 20.0948 12.219 20.3344C13.0787 20.5739 13.8675 20.9239 14.5861 21.3851C15.304 21.8463 15.9196 22.3955 16.4345 23.0335L13.9346 25.7991C13.5264 25.3738 13.0921 25.0059 12.6317 24.6954C12.1705 24.3857 11.6877 24.1462 11.1825 23.9775C10.6773 23.8096 10.1407 23.7246 9.57356 23.7246C8.8109 23.7246 8.09749 23.8663 7.43259 24.1499C6.76769 24.4335 6.18711 24.8283 5.69086 25.3335C5.1946 25.8387 4.79984 26.4506 4.50731 27.1685C4.21479 27.8864 4.06852 28.6804 4.06852 29.5483C4.06852 30.4161 4.21031 31.237 4.49388 31.9549C4.77745 32.6728 5.17595 33.2847 5.69086 33.7899C6.20502 34.2951 6.82142 34.6854 7.5393 34.96C8.25719 35.2354 9.05045 35.3719 9.91982 35.3719C10.487 35.3719 11.0369 35.2921 11.5683 35.1324C12.1003 34.9727 12.5921 34.7511 13.0443 34.4675C13.4966 34.1839 13.8995 33.8556 14.254 33.4832L16.2218 36.595C15.7786 37.0734 15.198 37.5084 14.4801 37.898C13.7622 38.2883 12.96 38.5942 12.0735 38.8151C11.1869 39.0367 10.2914 39.1472 9.38775 39.1472V39.1494Z" fill="#4E4FEB"/>
<path d="M25.0245 39.1494C23.5888 39.1494 22.3075 38.8353 21.1814 38.2054C20.0553 37.5764 19.1688 36.7122 18.5218 35.6122C17.874 34.513 17.5509 33.2549 17.5509 31.8355C17.5509 30.4161 17.874 29.1587 18.5218 28.0595C19.1688 26.9603 20.0553 26.0961 21.1814 25.4663C22.3067 24.8372 23.588 24.5223 25.0245 24.5223C26.4611 24.5223 27.7147 24.8372 28.8408 25.4663C29.9662 26.0961 30.849 26.9603 31.487 28.0595C32.125 29.1587 32.4444 30.4176 32.4444 31.8355C32.4444 33.2534 32.125 34.513 31.487 35.6122C30.849 36.7115 29.9662 37.5764 28.8408 38.2054C27.7147 38.8353 26.4431 39.1494 25.0245 39.1494ZM25.0245 35.8518C25.7163 35.8518 26.3364 35.6787 26.8864 35.3331C27.4357 34.9876 27.8655 34.5085 28.1759 33.8974C28.4856 33.2855 28.6319 32.5989 28.6147 31.8362C28.6319 31.0564 28.4856 30.3602 28.1759 29.749C27.8655 29.1371 27.4357 28.6587 26.8864 28.3132C26.3364 27.9677 25.7163 27.7946 25.0245 27.7946C24.3328 27.7946 23.6858 27.9722 23.1365 28.3267C22.5866 28.6811 22.1522 29.1602 21.8336 29.7624C21.5142 30.3654 21.3635 31.0564 21.3814 31.837C21.3635 32.5997 21.5142 33.2862 21.8336 33.8981C22.153 34.51 22.5866 34.9884 23.1365 35.3339C23.6858 35.6794 24.3156 35.8525 25.0245 35.8525V35.8518Z" fill="#4E4FEB"/>
<path d="M34.8108 38.883V19.2038H38.5868V38.883H34.8108Z" fill="#4E4FEB"/>
<path d="M41.9113 38.883V19.2038H45.6873V38.883H41.9113Z" fill="#4E4FEB"/>
<path d="M55.3944 39.1494C53.8691 39.1494 52.5356 38.8397 51.3923 38.2189C50.2491 37.5987 49.3618 36.7473 48.7327 35.666C48.1029 34.5847 47.7887 33.3437 47.7887 31.943C47.7887 30.8437 47.9656 29.8423 48.3208 28.9378C48.6752 28.0334 49.1715 27.2491 49.8103 26.5842C50.4491 25.9193 51.2065 25.4051 52.0841 25.0417C52.9617 24.6783 53.9146 24.4962 54.9429 24.4962C55.9004 24.4962 56.7869 24.6738 57.6026 25.0283C58.4174 25.3835 59.1226 25.8752 59.7167 26.5043C60.3107 27.1342 60.7674 27.8789 61.086 28.7386C61.4054 29.599 61.5464 30.5251 61.5114 31.5176L61.4845 32.6877H50.1819L49.57 30.3743H58.3727L57.9473 30.8527V30.2676C57.9115 29.7885 57.7563 29.3595 57.4817 28.9781C57.2063 28.5968 56.8563 28.2961 56.4309 28.0737C56.0056 27.852 55.5265 27.7409 54.9952 27.7409C54.2146 27.7409 53.5549 27.8916 53.0139 28.1931C52.4729 28.4946 52.0609 28.9378 51.7774 29.5229C51.4938 30.1079 51.352 30.8176 51.352 31.6504C51.352 32.4832 51.5333 33.2377 51.8975 33.8578C52.2609 34.4787 52.7751 34.9615 53.44 35.307C54.1049 35.6525 54.8892 35.8257 55.7937 35.8257C56.4138 35.8257 56.9809 35.7286 57.4958 35.5331C58.01 35.3384 58.5592 35.0011 59.1443 34.5227L60.9524 37.0488C60.4383 37.5099 59.8711 37.8957 59.2503 38.2054C58.6294 38.5159 57.9913 38.7509 57.3354 38.9099C56.6794 39.0696 56.0325 39.1494 55.3944 39.1494Z" fill="#4E4FEB"/>
<path d="M70.0477 45C68.9306 45 67.8314 44.8358 66.75 44.5082C65.6687 44.1799 64.7822 43.75 64.0904 43.2187L65.4464 40.533C65.8008 40.7807 66.2083 41.0024 66.6695 41.1979C67.1299 41.3926 67.6134 41.5434 68.1187 41.6501C68.6239 41.7568 69.1425 41.8098 69.6746 41.8098C70.5962 41.8098 71.3544 41.668 71.9484 41.3844C72.5424 41.1009 72.9894 40.6755 73.2916 40.1076C73.5931 39.5397 73.7438 38.8308 73.7438 37.9801V35.5331L74.3819 35.666C74.2759 36.251 73.9782 36.7876 73.4909 37.2749C73.0028 37.7629 72.4006 38.1525 71.6827 38.445C70.9648 38.7375 70.2156 38.8838 69.4358 38.8838C68.141 38.8838 66.9888 38.5823 65.9784 37.9793C64.968 37.3771 64.1703 36.5436 63.5852 35.4794C63.0002 34.416 62.7076 33.184 62.7076 31.7825C62.7076 30.3811 62.9957 29.1363 63.5718 28.0461C64.1479 26.9558 64.9367 26.0961 65.9389 25.4663C66.9403 24.8372 68.0799 24.5223 69.3559 24.5223C69.888 24.5223 70.3969 24.5842 70.885 24.7081C71.3723 24.8327 71.8245 25.0051 72.2409 25.2268C72.6573 25.4484 73.0297 25.6969 73.358 25.9715C73.6856 26.2469 73.9565 26.5431 74.1692 26.8625C74.3819 27.1819 74.5147 27.5006 74.5684 27.82L73.7976 28.0326L73.9043 24.8148H77.5213V37.8189C77.5213 38.9711 77.3527 39.9905 77.0161 40.877C76.6788 41.7635 76.187 42.5128 75.5401 43.1239C74.8931 43.7358 74.1043 44.2008 73.173 44.5202C72.2424 44.8395 71.2006 44.9985 70.0484 44.9985L70.0477 45ZM70.1544 35.8518C70.8992 35.8518 71.5506 35.6839 72.1088 35.3466C72.667 35.01 73.0968 34.5399 73.3983 33.9369C73.6998 33.3347 73.8506 32.625 73.8506 31.8094C73.8506 30.9937 73.6998 30.3064 73.3983 29.6953C73.0968 29.0834 72.667 28.6095 72.1088 28.2722C71.5506 27.9356 70.8992 27.767 70.1544 27.767C69.4097 27.767 68.7888 27.9401 68.2395 28.2856C67.6896 28.6311 67.2597 29.1102 66.95 29.7214C66.6396 30.3333 66.4844 31.0288 66.4844 31.8094C66.4844 32.59 66.6396 33.3116 66.95 33.9235C67.2597 34.5354 67.6903 35.01 68.2395 35.3466C68.7888 35.6839 69.4268 35.8518 70.1544 35.8518Z" fill="#4E4FEB"/>
<path d="M87.4135 39.1494C85.8882 39.1494 84.5547 38.8397 83.4114 38.2189C82.2682 37.5987 81.3809 36.7473 80.7518 35.666C80.122 34.5847 79.8078 33.3437 79.8078 31.943C79.8078 30.8437 79.9847 29.8423 80.3399 28.9378C80.6943 28.0334 81.1906 27.2491 81.8294 26.5842C82.4682 25.9193 83.2256 25.4051 84.1032 25.0417C84.9808 24.6783 85.9337 24.4962 86.962 24.4962C87.9195 24.4962 88.806 24.6738 89.6217 25.0283C90.4366 25.3835 91.1418 25.8752 91.7358 26.5043C92.3298 27.1342 92.7865 27.8789 93.1051 28.7386C93.4245 29.599 93.5656 30.5251 93.5305 31.5176L93.5036 32.6877H82.201L81.5891 30.3743H90.3918L89.9664 30.8527V30.2676C89.9306 29.7885 89.7754 29.3595 89.5008 28.9781C89.2254 28.5968 88.8754 28.2961 88.4501 28.0737C88.0247 27.852 87.5456 27.7409 87.0143 27.7409C86.2337 27.7409 85.574 27.8916 85.033 28.1931C84.492 28.4946 84.0801 28.9378 83.7965 29.5229C83.5129 30.1079 83.3711 30.8176 83.3711 31.6504C83.3711 32.4832 83.5525 33.2377 83.9166 33.8578C84.28 34.4787 84.7942 34.9615 85.4591 35.307C86.124 35.6525 86.9083 35.8257 87.8128 35.8257C88.4329 35.8257 89 35.7286 89.5149 35.5331C90.0291 35.3384 90.5783 35.0011 91.1634 34.5227L92.9715 37.0488C92.4574 37.5099 91.8902 37.8957 91.2694 38.2054C90.6485 38.5159 90.0105 38.7509 89.3545 38.9099C88.6986 39.0696 88.0516 39.1494 87.4135 39.1494Z" fill="#4E4FEB"/>
<path d="M97.6214 38.8808C99.0557 38.8808 100.218 37.7181 100.218 36.2839C100.218 34.8496 99.0557 33.687 97.6214 33.687C96.1872 33.687 95.0245 34.8496 95.0245 36.2839C95.0245 37.7181 96.1872 38.8808 97.6214 38.8808Z" fill="#068FFF"/>
</g>
<defs>
<clipPath id="clip0_3380_3895">
<rect width="100.218" height="45" fill="white"/>
</clipPath>
</defs>
</svg>